<svg xmlns="http://www.w3.org/2000/svg" width="375" viewBox="0 0 375 375" height="375" version="1.0"><defs><clipPath id="a"><path d="M 172 108 L 325 108 L 325 211 L 172 211 Z M 172 108"/></clipPath><clipPath id="b"><path d="M -8.304688 66.8125 L 222.871094 -98.578125 L 432.339844 194.210938 L 201.160156 359.601562 Z M -8.304688 66.8125"/></clipPath><clipPath id="c"><path d="M -8.304688 66.8125 L 222.871094 -98.578125 L 432.339844 194.210938 L 201.160156 359.601562 Z M -8.304688 66.8125"/></clipPath><clipPath id="d"><path d="M -8.304688 66.8125 L 222.871094 -98.578125 L 432.339844 194.210938 L 201.160156 359.601562 Z M -8.304688 66.8125"/></clipPath><clipPath id="e"><path d="M 139 134 L 317 134 L 317 323 L 139 323 Z M 139 134"/></clipPath><clipPath id="f"><path d="M -8.304688 66.8125 L 222.871094 -98.578125 L 432.339844 194.210938 L 201.160156 359.601562 Z M -8.304688 66.8125"/></clipPath><clipPath id="g"><path d="M -8.304688 66.8125 L 222.871094 -98.578125 L 432.339844 194.210938 L 201.160156 359.601562 Z M -8.304688 66.8125"/></clipPath><clipPath id="h"><path d="M -8.304688 66.8125 L 222.871094 -98.578125 L 432.339844 194.210938 L 201.160156 359.601562 Z M -8.304688 66.8125"/></clipPath><clipPath id="i"><path d="M 91.886719 206.859375 L 244.617188 97.59375 L 353.921875 250.378906 L 201.191406 359.644531 Z M 91.886719 206.859375"/></clipPath><clipPath id="j"><path d="M 91.886719 206.859375 L 244.617188 97.59375 L 353.882812 250.324219 L 201.152344 359.59375 Z M 91.886719 206.859375"/></clipPath><clipPath id="k"><path d="M 299 137 L 344 137 L 344 283 L 299 283 Z M 299 137"/></clipPath><clipPath id="l"><path d="M -8.304688 66.8125 L 222.871094 -98.578125 L 432.339844 194.210938 L 201.160156 359.601562 Z M -8.304688 66.8125"/></clipPath><clipPath id="m"><path d="M -8.304688 66.8125 L 222.871094 -98.578125 L 432.339844 194.210938 L 201.160156 359.601562 Z M -8.304688 66.8125"/></clipPath><clipPath id="n"><path d="M -8.304688 66.8125 L 222.871094 -98.578125 L 432.339844 194.210938 L 201.160156 359.601562 Z M -8.304688 66.8125"/></clipPath><clipPath id="o"><path d="M 173 3 L 268 3 L 268 111 L 173 111 Z M 173 3"/></clipPath><clipPath id="p"><path d="M -8.304688 66.8125 L 222.871094 -98.578125 L 432.339844 194.210938 L 201.160156 359.601562 Z M -8.304688 66.8125"/></clipPath><clipPath id="q"><path d="M -8.304688 66.8125 L 222.871094 -98.578125 L 432.339844 194.210938 L 201.160156 359.601562 Z M -8.304688 66.8125"/></clipPath><clipPath id="r"><path d="M -8.304688 66.8125 L 222.871094 -98.578125 L 432.339844 194.210938 L 201.160156 359.601562 Z M -8.304688 66.8125"/></clipPath><clipPath id="s"><path d="M 179 29 L 268 29 L 268 111 L 179 111 Z M 179 29"/></clipPath><clipPath id="t"><path d="M -8.304688 66.8125 L 222.871094 -98.578125 L 432.339844 194.210938 L 201.160156 359.601562 Z M -8.304688 66.8125"/></clipPath><clipPath id="u"><path d="M -8.304688 66.8125 L 222.871094 -98.578125 L 432.339844 194.210938 L 201.160156 359.601562 Z M -8.304688 66.8125"/></clipPath><clipPath id="v"><path d="M -8.304688 66.8125 L 222.871094 -98.578125 L 432.339844 194.210938 L 201.160156 359.601562 Z M -8.304688 66.8125"/></clipPath><clipPath id="w"><path d="M 172 53 L 321 53 L 321 150 L 172 150 Z M 172 53"/></clipPath><clipPath id="x"><path d="M -8.304688 66.8125 L 222.871094 -98.578125 L 432.339844 194.210938 L 201.160156 359.601562 Z M -8.304688 66.8125"/></clipPath><clipPath id="y"><path d="M -8.304688 66.8125 L 222.871094 -98.578125 L 432.339844 194.210938 L 201.160156 359.601562 Z M -8.304688 66.8125"/></clipPath><clipPath id="z"><path d="M -8.304688 66.8125 L 222.871094 -98.578125 L 432.339844 194.210938 L 201.160156 359.601562 Z M -8.304688 66.8125"/></clipPath><clipPath id="A"><path d="M 147.796875 114.742188 L 269.640625 27.570312 L 340.371094 126.4375 L 218.527344 213.605469 Z M 147.796875 114.742188"/></clipPath><clipPath id="B"><path d="M 147.796875 114.742188 L 269.609375 27.59375 L 340.339844 126.457031 L 218.527344 213.605469 Z M 147.796875 114.742188"/></clipPath><clipPath id="C"><path d="M 172 75 L 319 75 L 319 150 L 172 150 Z M 172 75"/></clipPath><clipPath id="D"><path d="M -8.304688 66.8125 L 222.871094 -98.578125 L 432.339844 194.210938 L 201.160156 359.601562 Z M -8.304688 66.8125"/></clipPath><clipPath id="E"><path d="M -8.304688 66.8125 L 222.871094 -98.578125 L 432.339844 194.210938 L 201.160156 359.601562 Z M -8.304688 66.8125"/></clipPath><clipPath id="F"><path d="M -8.304688 66.8125 L 222.871094 -98.578125 L 432.339844 194.210938 L 201.160156 359.601562 Z M -8.304688 66.8125"/></clipPath><clipPath id="G"><path d="M 36 34 L 152 34 L 152 178 L 36 178 Z M 36 34"/></clipPath><clipPath id="H"><path d="M -8.304688 66.8125 L 222.871094 -98.578125 L 432.339844 194.210938 L 201.160156 359.601562 Z M -8.304688 66.8125"/></clipPath><clipPath id="I"><path d="M -8.304688 66.8125 L 222.871094 -98.578125 L 432.339844 194.210938 L 201.160156 359.601562 Z M -8.304688 66.8125"/></clipPath><clipPath id="J"><path d="M -8.304688 66.8125 L 222.871094 -98.578125 L 432.339844 194.210938 L 201.160156 359.601562 Z M -8.304688 66.8125"/></clipPath><clipPath id="K"><path d="M 36 37 L 152 37 L 152 178 L 36 178 Z M 36 37"/></clipPath><clipPath id="L"><path d="M -8.304688 66.8125 L 222.871094 -98.578125 L 432.339844 194.210938 L 201.160156 359.601562 Z M -8.304688 66.8125"/></clipPath><clipPath id="M"><path d="M -8.304688 66.8125 L 222.871094 -98.578125 L 432.339844 194.210938 L 201.160156 359.601562 Z M -8.304688 66.8125"/></clipPath><clipPath id="N"><path d="M -8.304688 66.8125 L 222.871094 -98.578125 L 432.339844 194.210938 L 201.160156 359.601562 Z M -8.304688 66.8125"/></clipPath><clipPath id="O"><path d="M 92 78 L 191 78 L 191 173 L 92 173 Z M 92 78"/></clipPath><clipPath id="P"><path d="M -8.304688 66.8125 L 222.871094 -98.578125 L 432.339844 194.210938 L 201.160156 359.601562 Z M -8.304688 66.8125"/></clipPath><clipPath id="Q"><path d="M -8.304688 66.8125 L 222.871094 -98.578125 L 432.339844 194.210938 L 201.160156 359.601562 Z M -8.304688 66.8125"/></clipPath><clipPath id="R"><path d="M -8.304688 66.8125 L 222.871094 -98.578125 L 432.339844 194.210938 L 201.160156 359.601562 Z M -8.304688 66.8125"/></clipPath><clipPath id="S"><path d="M 92 90 L 191 90 L 191 173 L 92 173 Z M 92 90"/></clipPath><clipPath id="T"><path d="M -8.304688 66.8125 L 222.871094 -98.578125 L 432.339844 194.210938 L 201.160156 359.601562 Z M -8.304688 66.8125"/></clipPath><clipPath id="U"><path d="M -8.304688 66.8125 L 222.871094 -98.578125 L 432.339844 194.210938 L 201.160156 359.601562 Z M -8.304688 66.8125"/></clipPath><clipPath id="V"><path d="M -8.304688 66.8125 L 222.871094 -98.578125 L 432.339844 194.210938 L 201.160156 359.601562 Z M -8.304688 66.8125"/></clipPath><clipPath id="W"><path d="M 112 64 L 188 64 L 188 127 L 112 127 Z M 112 64"/></clipPath><clipPath id="X"><path d="M -8.304688 66.8125 L 222.871094 -98.578125 L 432.339844 194.210938 L 201.160156 359.601562 Z M -8.304688 66.8125"/></clipPath><clipPath id="Y"><path d="M -8.304688 66.8125 L 222.871094 -98.578125 L 432.339844 194.210938 L 201.160156 359.601562 Z M -8.304688 66.8125"/></clipPath><clipPath id="Z"><path d="M -8.304688 66.8125 L 222.871094 -98.578125 L 432.339844 194.210938 L 201.160156 359.601562 Z M -8.304688 66.8125"/></clipPath><clipPath id="aa"><path d="M 82 7 L 96 7 L 96 27 L 82 27 Z M 82 7"/></clipPath><clipPath id="ab"><path d="M -8.304688 66.8125 L 222.871094 -98.578125 L 432.339844 194.210938 L 201.160156 359.601562 Z M -8.304688 66.8125"/></clipPath><clipPath id="ac"><path d="M -8.304688 66.8125 L 222.871094 -98.578125 L 432.339844 194.210938 L 201.160156 359.601562 Z M -8.304688 66.8125"/></clipPath><clipPath id="ad"><path d="M -8.304688 66.8125 L 222.871094 -98.578125 L 432.339844 194.210938 L 201.160156 359.601562 Z M -8.304688 66.8125"/></clipPath><clipPath id="ae"><path d="M 93 19 L 111 19 L 111 33 L 93 33 Z M 93 19"/></clipPath><clipPath id="af"><path d="M -8.304688 66.8125 L 222.871094 -98.578125 L 432.339844 194.210938 L 201.160156 359.601562 Z M -8.304688 66.8125"/></clipPath><clipPath id="ag"><path d="M -8.304688 66.8125 L 222.871094 -98.578125 L 432.339844 194.210938 L 201.160156 359.601562 Z M -8.304688 66.8125"/></clipPath><clipPath id="ah"><path d="M -8.304688 66.8125 L 222.871094 -98.578125 L 432.339844 194.210938 L 201.160156 359.601562 Z M -8.304688 66.8125"/></clipPath><clipPath id="ai"><path d="M 64 11 L 80 11 L 80 28 L 64 28 Z M 64 11"/></clipPath><clipPath id="aj"><path d="M -8.304688 66.8125 L 222.871094 -98.578125 L 432.339844 194.210938 L 201.160156 359.601562 Z M -8.304688 66.8125"/></clipPath><clipPath id="ak"><path d="M -8.304688 66.8125 L 222.871094 -98.578125 L 432.339844 194.210938 L 201.160156 359.601562 Z M -8.304688 66.8125"/></clipPath><clipPath id="al"><path d="M -8.304688 66.8125 L 222.871094 -98.578125 L 432.339844 194.210938 L 201.160156 359.601562 Z M -8.304688 66.8125"/></clipPath></defs><g clip-path="url(#a)"><g clip-path="url(#b)"><g clip-path="url(#c)"><g clip-path="url(#d)"><path fill="#3B75C4" d="M 311.835938 137.675781 C 327.410156 159.441406 328.09375 187.886719 314.808594 210.058594 C 304.773438 160.308594 256.441406 126.792969 205.539062 136.191406 C 200.855469 137.058594 196.210938 138.285156 191.648438 139.886719 C 185.148438 142.164062 178.816406 145.195312 172.777344 149.003906 C 177.398438 142.34375 182.953125 136.203125 189.40625 130.777344 C 191.273438 129.207031 193.21875 127.699219 195.242188 126.25 C 202.785156 120.855469 210.859375 116.734375 219.207031 113.855469 L 219.207031 113.859375 C 236.300781 107.953125 254.535156 107.242188 271.6875 111.355469 C 289.390625 115.601562 302.511719 124.640625 311.835938 137.675781"/><path fill="#4AA6E1" d="M 311.835938 137.675781 C 327.40625 159.441406 328.09375 187.886719 314.808594 210.058594 C 337.0625 114.472656 226.0625 104.199219 172.777344 149.003906 C 177.398438 142.339844 182.953125 136.203125 189.40625 130.777344 C 191.273438 129.207031 193.21875 127.695312 195.242188 126.25 C 202.785156 120.851562 210.859375 116.734375 219.207031 113.855469 L 219.207031 113.859375 C 236.300781 107.953125 254.535156 107.242188 271.6875 111.355469 C 289.394531 115.601562 302.511719 124.644531 311.835938 137.675781"/></g></g></g></g><g clip-path="url(#e)"><g clip-path="url(#f)"><g clip-path="url(#g)"><g clip-path="url(#h)"><g clip-path="url(#i)"><g clip-path="url(#j)"><path fill="#A7D61C" d="M 314.808594 210.058594 C 321.925781 245.296875 308.390625 282.871094 277.46875 304.996094 C 231.230469 338.074219 166.183594 322.726562 139.59375 271.953125 C 161.859375 301.992188 202.050781 311.199219 234.652344 295.328125 C 256.484375 284.714844 272.375 264.230469 276.640625 239.460938 C 284.847656 191.824219 247.230469 147.59375 197.6875 149.683594 C 184.164062 150.226562 173.40625 154.058594 161.570312 160.113281 C 162.894531 157.804688 171.246094 151.203125 172.777344 149.003906 C 228.3125 113.992188 301.867188 145.890625 314.808594 210.058594"/><path fill="#71B12E" d="M 314.808594 210.058594 C 321.925781 245.296875 308.390625 282.871094 277.46875 304.996094 C 231.230469 338.074219 166.183594 322.726562 139.59375 271.953125 C 205.203125 358.316406 296.339844 291.492188 300.109375 237.203125 C 304.023438 180.792969 255.621094 144.738281 197.6875 149.683594 C 184.203125 150.832031 173.40625 154.058594 161.570312 160.113281 C 162.894531 157.804688 171.246094 151.203125 172.777344 149.003906 C 228.3125 113.992188 301.867188 145.890625 314.808594 210.058594"/></g></g></g></g></g></g><g clip-path="url(#k)"><g clip-path="url(#l)"><g clip-path="url(#m)"><g clip-path="url(#n)"><path fill="#A7D61C" d="M 299.933594 282.242188 C 314.539062 261.207031 319.847656 235.011719 314.8125 210.058594 C 326.691406 190.226562 327.558594 164.941406 315.8125 143.941406 C 316.585938 141.972656 317.265625 139.96875 317.84375 137.945312 C 358.925781 181.21875 349.925781 250.90625 299.933594 282.242188"/></g></g></g></g><g clip-path="url(#o)"><g clip-path="url(#p)"><g clip-path="url(#q)"><g clip-path="url(#r)"><path fill="#3B75C4" d="M 267.535156 55.003906 C 237.40625 48.851562 207.769531 64.265625 194.96875 90.96875 C 192.050781 97.046875 189.128906 110.144531 189.128906 110.144531 C 190.996094 95.570312 188.382812 76.515625 179.777344 64.835938 C 170.019531 40.847656 171.570312 17.875 185.46875 7.933594 C 207.269531 -7.664062 247.855469 15.957031 267.535156 55.003906"/></g></g></g></g><g clip-path="url(#s)"><g clip-path="url(#t)"><g clip-path="url(#u)"><g clip-path="url(#v)"><path fill="#4AA6E1" d="M 267.535156 55.003906 C 237.8125 49.976562 208.613281 66.035156 195.203125 91.023438 C 192.011719 96.960938 189.128906 110.144531 189.128906 110.144531 C 190.996094 95.570312 188.382812 76.515625 179.777344 64.835938 C 180.082031 10.851562 251.449219 27.523438 267.535156 55.003906"/></g></g></g></g><g clip-path="url(#w)"><g clip-path="url(#x)"><g clip-path="url(#y)"><g clip-path="url(#z)"><g clip-path="url(#A)"><g clip-path="url(#B)"><path fill="#71B12E" d="M 315.8125 143.941406 C 314.621094 141.804688 313.292969 139.714844 311.835938 137.675781 C 302.578125 124.738281 289.550781 115.828125 272.410156 111.617188 C 250.992188 106.351562 204.222656 110.242188 172.777344 149.003906 C 172.6875 149.058594 172.597656 149.113281 172.511719 149.171875 C 181.292969 138.308594 187.261719 124.734375 189.128906 110.144531 L 189.136719 110.148438 C 194.53125 72.652344 230.34375 47.410156 267.535156 55.003906 C 307.707031 63.210938 330.816406 105.75 315.8125 143.941406"/></g></g></g></g></g></g><g clip-path="url(#C)"><g clip-path="url(#D)"><g clip-path="url(#E)"><g clip-path="url(#F)"><path fill="#A7D61C" d="M 315.8125 143.941406 C 314.621094 141.804688 313.292969 139.710938 311.835938 137.675781 C 302.582031 124.738281 289.550781 115.832031 272.410156 111.617188 C 250.992188 106.351562 204.222656 110.242188 172.777344 149.003906 C 172.6875 149.058594 172.597656 149.113281 172.511719 149.171875 C 219.082031 39.140625 339.222656 64.058594 315.8125 143.941406"/></g></g></g></g><g clip-path="url(#G)"><g clip-path="url(#H)"><g clip-path="url(#I)"><g clip-path="url(#J)"><path fill="#3B75C4" d="M 106.671875 56.738281 C 99.433594 66.0625 77.296875 64.285156 69.738281 52.710938 C 58.410156 69.796875 59.503906 91.964844 71.054688 107.496094 C 78.277344 117.070312 92.480469 117.765625 100.558594 108.835938 C 90.414062 122.078125 89.515625 141.121094 99.882812 155.609375 C 111.742188 172.1875 134.078125 176.820312 151.371094 166.929688 C 117.628906 186.394531 73.945312 177.386719 50.769531 144.992188 C 25.039062 109.03125 35.59375 59.707031 69.402344 37.304688 C 78.472656 31.175781 91.058594 35.308594 94.609375 45.925781 C 96.457031 51.238281 100.929688 55.429688 106.671875 56.738281"/></g></g></g></g><g clip-path="url(#K)"><g clip-path="url(#L)"><g clip-path="url(#M)"><g clip-path="url(#N)"><path fill="#4AA6E1" d="M 100.558594 108.835938 C 90.417969 122.078125 89.515625 141.121094 99.882812 155.609375 C 111.742188 172.1875 134.078125 176.820312 151.371094 166.929688 C 117.628906 186.394531 73.945312 177.386719 50.769531 144.992188 C 25.039062 109.03125 35.59375 59.707031 69.402344 37.304688 C 13.332031 95.445312 73.492188 170.1875 100.558594 108.835938"/></g></g></g></g><g clip-path="url(#O)"><g clip-path="url(#P)"><g clip-path="url(#Q)"><g clip-path="url(#R)"><path fill="#71B12E" d="M 189.324219 90.304688 C 193.257812 110.855469 184.332031 137.019531 172.511719 149.171875 C 162.914062 161.046875 152.085938 166.535156 152.332031 166.359375 C 140.820312 173.601562 126 173.59375 115.746094 168.65625 C 82.3125 152.550781 87.453125 109.683594 112.886719 99.808594 C 115.511719 107.898438 123.34375 117.175781 128.613281 120.371094 C 167.15625 139.738281 193.242188 104.285156 186.628906 78.585938 C 186.628906 78.585938 188.382812 84.429688 189.324219 90.304688"/></g></g></g></g><g clip-path="url(#S)"><g clip-path="url(#T)"><g clip-path="url(#U)"><g clip-path="url(#V)"><path fill="#A7D61C" d="M 189.320312 90.304688 C 193.257812 110.855469 184.335938 137.023438 172.507812 149.171875 C 162.914062 161.046875 152.085938 166.539062 152.332031 166.359375 C 140.820312 173.601562 126 173.59375 115.746094 168.65625 C 91.636719 157.042969 87.585938 131.511719 96.738281 114.472656 C 116.230469 171.894531 184.195312 148.757812 189.320312 90.304688"/></g></g></g></g><g clip-path="url(#W)"><g clip-path="url(#X)"><g clip-path="url(#Y)"><g clip-path="url(#Z)"><path fill="#4AA6E1" d="M 180.070312 111.511719 C 163.613281 133.511719 129.347656 131.105469 115.871094 106.722656 C 115.871094 106.722656 115.863281 106.710938 115.863281 106.707031 C 115.835938 106.65625 113.542969 101.851562 112.886719 99.808594 C 118.847656 97.5 125.339844 97.148438 132.296875 99.230469 C 155.628906 106.246094 179.164062 89.167969 179.777344 64.835938 C 191.160156 79.339844 189.917969 98.566406 180.070312 111.511719"/><path fill="#3B75C4" d="M 180.070312 111.511719 C 163.613281 133.511719 129.347656 131.105469 115.871094 106.722656 C 115.871094 106.722656 115.863281 106.710938 115.863281 106.707031 C 115.835938 106.65625 113.542969 101.851562 112.886719 99.808594 C 141.289062 139.542969 180.832031 108.746094 179.777344 64.835938 C 191.160156 79.339844 189.917969 98.566406 180.070312 111.511719"/></g></g></g></g><g clip-path="url(#aa)"><g clip-path="url(#ab)"><g clip-path="url(#ac)"><g clip-path="url(#ad)"><path fill="#3B75C4" d="M 94.910156 15.339844 C 94.304688 18.808594 86.511719 26.394531 86.511719 26.394531 C 86.511719 26.394531 81.738281 16.605469 82.34375 13.132812 C 82.949219 9.664062 86.25 7.34375 89.71875 7.953125 C 93.191406 8.5625 95.511719 11.871094 94.910156 15.339844"/></g></g></g></g><g clip-path="url(#ae)"><g clip-path="url(#af)"><g clip-path="url(#ag)"><g clip-path="url(#ah)"><path fill="#3B75C4" d="M 107.605469 31.726562 C 104.519531 33.425781 93.726562 32.082031 93.726562 32.082031 C 93.726562 32.082031 98.359375 22.242188 101.441406 20.546875 C 104.523438 18.847656 108.40625 19.972656 110.105469 23.0625 C 111.808594 26.148438 110.6875 30.027344 107.605469 31.726562"/></g></g></g></g><g clip-path="url(#ai)"><g clip-path="url(#aj)"><g clip-path="url(#ak)"><g clip-path="url(#al)"><path fill="#3B75C4" d="M 76.152344 14.023438 C 78.378906 16.757812 79.007812 27.625 79.007812 27.625 C 79.007812 27.625 68.492188 24.804688 66.269531 22.070312 C 64.042969 19.339844 64.453125 15.320312 67.179688 13.097656 C 69.910156 10.871094 73.925781 11.289062 76.152344 14.023438"/></g></g></g></g><g fill="#A52A2A"><g><g><path d="M 38.488281 3.097656 C 41.277344 3.515625 43.226562 0.191406 42.539062 -1.070312 C 39.214844 -2.75 42.195312 -8.828125 44.066406 -15.671875 C 44.871094 -18.691406 48.003906 -26.488281 41.164062 -26.488281 C 37.835938 -26.488281 34.894531 -23.8125 33.097656 -21.671875 C 33.519531 -24.539062 32.335938 -26.449219 29.390625 -26.449219 C 25.988281 -26.449219 22.625 -24.003906 20.601562 -21.136719 L 22.089844 -25.378906 C 21.671875 -26.410156 17.847656 -26.675781 16.742188 -25.722656 C 12.230469 -20.601562 3.25 -23.238281 2.027344 -17.542969 C 1.261719 -13.988281 4.546875 -11.734375 8.027344 -12.230469 C 9.058594 -12.382812 9.632812 -14.636719 9.058594 -14.867188 C 7.910156 -15.328125 7.757812 -16.167969 8.027344 -17.238281 C 8.675781 -19.796875 12.878906 -18.804688 14.945312 -21.136719 C 13.910156 -17.925781 12.917969 -14.792969 12.039062 -11.847656 C 10.816406 -7.683594 9.785156 -3.9375 8.789062 -0.917969 C 9.402344 0.6875 13.757812 0.6875 14.980469 -0.382812 C 15.363281 -1.492188 16.472656 -6.304688 18.269531 -11.542969 C 19.757812 -15.554688 23.8125 -22.742188 26.332031 -22.550781 C 27.785156 -22.433594 26.601562 -19.070312 25.914062 -16.816406 C 23.46875 -8.945312 22.359375 -4.664062 21.136719 -0.917969 C 21.402344 0.839844 26.5625 0.496094 27.328125 -0.382812 C 27.863281 -1.71875 28.511719 -5.351562 31.835938 -15.058594 C 33.289062 -18.84375 36.539062 -22.550781 38.5625 -22.550781 C 40.398438 -22.550781 38.71875 -19.070312 38.027344 -16.816406 C 35.238281 -7.683594 32.640625 1.453125 38.488281 3.097656 Z M 38.488281 3.097656" transform="translate(105.715 221.365)"/></g></g></g><g fill="#A52A2A"><g><g><path d="M 10.816406 -16.242188 C 5.273438 -16.320312 0.992188 -12.726562 0.496094 -7.414062 C 0.113281 -3.363281 2.523438 0.34375 9.132812 0.382812 C 13.796875 0.421875 17.464844 -1.492188 20.449219 -6.917969 C 20.640625 -7.261719 19.035156 -8.332031 18.765625 -7.796875 C 16.777344 -4.011719 13.378906 -3.097656 11.199219 -3.132812 C 8.445312 -3.171875 6.878906 -4.050781 6.6875 -6.078125 C 11.007812 -5.425781 14.523438 -6.765625 15.824219 -9.480469 C 17.429688 -12.496094 15.785156 -16.167969 10.816406 -16.242188 Z M 10.28125 -12.613281 C 10.855469 -12.535156 11.007812 -11.925781 10.777344 -11.160156 C 10.433594 -9.9375 9.097656 -8.445312 6.878906 -8.523438 C 7.453125 -11.007812 8.90625 -12.804688 10.28125 -12.613281 Z M 10.28125 -12.613281" transform="translate(151.573 221.365)"/></g></g></g><g fill="#A52A2A"><g><g><path d="M 5.734375 -25.875 C 3.898438 -19.835938 0.6875 -8.753906 -1.453125 -0.6875 C -1.910156 1.03125 4.699219 0.535156 4.890625 -0.304688 C 5.617188 -3.285156 6.535156 -6.726562 7.566406 -10.585938 C 8.523438 -11.464844 9.667969 -12.117188 10.394531 -12.191406 C 11.464844 -12.308594 11.542969 -11.542969 11.199219 -10.546875 C 10.96875 -9.859375 9.707031 -5.925781 9.441406 -3.976562 C 9.132812 -1.683594 9.746094 0.574219 13.644531 0.304688 C 17.964844 0 20.714844 -3.820312 22.359375 -6.878906 C 22.589844 -7.261719 20.984375 -8.332031 20.714844 -7.796875 C 19.644531 -5.503906 17.621094 -3.285156 16.394531 -3.210938 C 14.257812 -3.058594 16.816406 -8.789062 17.582031 -11.273438 C 18.5 -14.257812 17.773438 -16.359375 14.410156 -16.359375 C 12.269531 -16.359375 9.9375 -14.90625 8.523438 -13.835938 C 9.707031 -18.382812 11.082031 -22.777344 11.808594 -24.957031 C 11.886719 -26.140625 7.070312 -26.792969 5.734375 -25.875 Z M 5.734375 -25.875" transform="translate(169.801 221.365)"/></g></g></g><g fill="#A52A2A"><g><g><path d="M 10.816406 -16.242188 C 5.273438 -16.320312 0.992188 -12.726562 0.496094 -7.414062 C 0.113281 -3.363281 2.523438 0.34375 9.132812 0.382812 C 13.796875 0.421875 17.464844 -1.492188 20.449219 -6.917969 C 20.640625 -7.261719 19.035156 -8.332031 18.765625 -7.796875 C 16.777344 -4.011719 13.378906 -3.097656 11.199219 -3.132812 C 8.445312 -3.171875 6.878906 -4.050781 6.6875 -6.078125 C 11.007812 -5.425781 14.523438 -6.765625 15.824219 -9.480469 C 17.429688 -12.496094 15.785156 -16.167969 10.816406 -16.242188 Z M 10.28125 -12.613281 C 10.855469 -12.535156 11.007812 -11.925781 10.777344 -11.160156 C 10.433594 -9.9375 9.097656 -8.445312 6.878906 -8.523438 C 7.453125 -11.007812 8.90625 -12.804688 10.28125 -12.613281 Z M 10.28125 -12.613281" transform="translate(189.979 221.365)"/></g></g></g><g fill="#A52A2A"><g><g><path d="M 14.179688 -16.359375 C 11.886719 -16.394531 9.441406 -14.5625 8.0625 -13.492188 C 8.292969 -14.101562 8.445312 -14.792969 8.675781 -15.402344 C 7.71875 -16.777344 3.976562 -16.777344 2.941406 -16.089844 C 1.375 -11.046875 -0.265625 -5.617188 -1.414062 -0.574219 C -0.957031 0.765625 4.089844 0.574219 4.738281 -0.34375 C 5.617188 -3.859375 6.269531 -6.996094 7.375 -10.585938 C 8.371094 -11.390625 9.289062 -11.960938 10.089844 -12.078125 C 11.160156 -12.230469 11.160156 -11.582031 10.929688 -10.546875 C 10.777344 -9.859375 9.824219 -5.960938 9.515625 -4.777344 C 8.753906 -1.757812 9.632812 0.421875 13.566406 0.304688 C 17.886719 0.191406 20.867188 -3.976562 22.398438 -6.878906 C 22.589844 -7.261719 21.019531 -8.332031 20.753906 -7.796875 C 19.570312 -5.351562 17.65625 -3.210938 16.242188 -3.210938 C 15.554688 -3.210938 15.363281 -4.242188 15.671875 -5.65625 C 16.050781 -7.414062 16.894531 -9.707031 17.277344 -11.273438 C 18 -14.292969 17.160156 -16.320312 14.179688 -16.359375 Z M 14.179688 -16.359375" transform="translate(208.207 221.365)"/></g></g></g><g fill="#A52A2A"><g><g><path d="M 16.015625 -25.835938 C 15.328125 -23.351562 14.21875 -19.988281 13.300781 -16.359375 C 10.320312 -16.550781 6.535156 -15.859375 3.667969 -12.878906 C -0.800781 -8.253906 -1.988281 0.421875 4.777344 0.304688 C 8.253906 0.265625 9.976562 -2.0625 11.160156 -4.242188 C 10.894531 -1.300781 12.269531 0.304688 14.371094 0.304688 C 17.964844 0.304688 21.175781 -2.484375 23.46875 -6.878906 C 23.695312 -7.261719 22.089844 -8.332031 21.824219 -7.796875 C 20.640625 -5.273438 18.535156 -3.25 17.429688 -3.171875 C 14.675781 -3.019531 20.371094 -18.878906 22.054688 -25.035156 C 21.785156 -26.296875 16.777344 -26.675781 16.015625 -25.835938 Z M 12.230469 -12.726562 C 11.351562 -9.441406 10.664062 -7.644531 10.167969 -6.726562 C 8.753906 -4.050781 7.339844 -3.019531 6.535156 -3.324219 C 4.890625 -3.976562 6.613281 -8.292969 7.644531 -9.898438 C 9.132812 -12.152344 10.96875 -12.6875 12.230469 -12.726562 Z M 12.230469 -12.726562" transform="translate(228.385 221.365)"/></g></g></g><g fill="#A52A2A"><g><g><path d="M 6.878906 -18.421875 C 9.132812 -18.421875 10.546875 -19.835938 10.855469 -21.59375 C 11.160156 -23.3125 10.128906 -24.726562 8.140625 -24.765625 C 6.113281 -24.804688 4.664062 -23.390625 4.28125 -21.59375 C 3.9375 -19.914062 5.121094 -18.421875 6.878906 -18.421875 Z M 3.976562 0.265625 C 8.332031 0.078125 11.273438 -3.59375 13.03125 -6.878906 C 13.222656 -7.222656 11.617188 -8.332031 11.390625 -7.796875 C 10.089844 -5.007812 7.796875 -3.171875 6.460938 -3.210938 C 5.960938 -3.210938 5.769531 -3.976562 6 -5.425781 C 6.382812 -7.492188 7.566406 -10.929688 8.828125 -15.328125 C 8.140625 -16.585938 3.820312 -16.894531 2.867188 -16.089844 C 1.796875 -12.460938 0.613281 -8.484375 -0.230469 -4.855469 C -0.957031 -1.757812 -0.113281 0.457031 3.976562 0.265625 Z M 3.976562 0.265625" transform="translate(249.67 221.365)"/></g></g></g><g fill="#A52A2A"><g><g><path d="M 23.238281 -19.492188 C 24.039062 -23.773438 21.363281 -26.332031 16.167969 -26.488281 C 10.96875 -26.5625 7.988281 -24.230469 7.605469 -20.449219 C 6.917969 -13.835938 15.441406 -11.65625 15.058594 -6.382812 C 14.945312 -4.355469 13.683594 -3.019531 11.582031 -3.097656 C 9.441406 -3.171875 7.683594 -5.582031 8.675781 -9.824219 C 8.371094 -11.160156 4.585938 -11.617188 3.59375 -10.511719 C 2.027344 -5.960938 2.75 0.265625 11.199219 0.34375 C 16.777344 0.382812 20.90625 -1.835938 21.25 -6.765625 C 21.671875 -13.03125 13.414062 -15.515625 13.796875 -20.105469 C 13.949219 -22.359375 15.25 -22.894531 16.167969 -22.933594 C 17.621094 -22.933594 18.535156 -22.167969 18.191406 -19.683594 C 18.652344 -18.382812 22.550781 -18.117188 23.238281 -19.492188 Z M 23.238281 -19.492188" transform="translate(137.578 254.365)"/></g></g></g><g fill="#A52A2A"><g><g><path d="M 10.816406 -16.28125 C 4.699219 -16.359375 0.535156 -12 0.421875 -6.996094 C 0.34375 -3.019531 3.285156 0.113281 7.339844 0.265625 C 11.542969 0.421875 15.746094 -0.992188 18.84375 -6.917969 C 19.035156 -7.222656 17.429688 -8.332031 17.199219 -7.796875 C 15.554688 -4.472656 13.070312 -3.363281 10.738281 -3.210938 C 8.371094 -3.097656 6.535156 -4.472656 6.765625 -7.339844 C 7.03125 -10.664062 8.90625 -12.804688 10.203125 -12.6875 C 11.160156 -12.613281 10.050781 -10.472656 9.785156 -9.9375 C 10.203125 -8.636719 14.257812 -8.828125 15.25 -10.167969 C 16.550781 -12.496094 16.359375 -16.207031 10.816406 -16.28125 Z M 10.816406 -16.28125" transform="translate(161.004 254.365)"/></g></g></g><g fill="#A52A2A"><g><g><path d="M 10.359375 -16.242188 C 6.269531 -15.632812 0.839844 -11.847656 0.0390625 -5.808594 C -0.648438 -0.765625 2.484375 0.34375 4.855469 0.304688 C 8.332031 0.265625 10.050781 -2.0625 11.238281 -4.242188 C 10.929688 -1.492188 11.773438 0.304688 13.796875 0.304688 C 17.542969 0.304688 20.867188 -2.597656 23.160156 -6.878906 C 23.390625 -7.261719 21.785156 -8.292969 21.519531 -7.757812 C 20.292969 -5.234375 17.886719 -3.25 16.742188 -3.210938 C 15.976562 -3.171875 15.59375 -4.050781 16.128906 -6.191406 C 16.472656 -7.605469 16.855469 -8.789062 17.160156 -9.785156 C 16.703125 -10.664062 13.109375 -11.695312 11.886719 -10.777344 C 10.855469 -7.988281 8.140625 -1.910156 6.382812 -3.554688 C 5.808594 -4.089844 5.847656 -5.695312 6.6875 -7.988281 C 7.644531 -10.585938 9.824219 -12.613281 12.152344 -12.726562 C 14.101562 -12.84375 16.359375 -12.230469 17.886719 -11.007812 C 18.574219 -10.816406 20.410156 -12.996094 20.066406 -13.835938 C 17.734375 -16.207031 13.148438 -16.664062 10.359375 -16.242188 Z M 10.359375 -16.242188" transform="translate(177.627 254.365)"/></g></g></g><g fill="#A52A2A"><g><g><path d="M 14.484375 -16.242188 C 11.773438 -16.472656 9.707031 -14.980469 7.988281 -13.53125 C 8.140625 -13.910156 8.5625 -14.980469 8.675781 -15.328125 C 7.910156 -16.855469 3.171875 -16.703125 2.90625 -16.015625 C 0 -6.230469 -2.371094 2.789062 -4.242188 10.28125 C -4.164062 11.503906 1.148438 11.542969 1.835938 10.546875 C 2.980469 6.078125 3.820312 2.40625 4.699219 -0.839844 C 7.644531 1.03125 11.734375 0.496094 14.292969 -1.949219 C 16.96875 -1.566406 20.523438 -2.253906 22.816406 -6.878906 C 23.007812 -7.300781 21.402344 -8.332031 21.175781 -7.796875 C 20.105469 -5.503906 18.230469 -3.859375 15.785156 -3.9375 C 18.765625 -7.949219 19.492188 -15.824219 14.484375 -16.242188 Z M 10.816406 -12.117188 C 12.039062 -11.847656 12.039062 -9.632812 10.664062 -6.421875 C 9.632812 -6.6875 8.371094 -4.816406 9.25 -3.554688 C 8.332031 -2.941406 6.574219 -3.210938 5.542969 -4.203125 C 6.230469 -6.535156 6.6875 -8.410156 7.375 -10.625 C 8.714844 -11.773438 10.089844 -12.269531 10.816406 -12.117188 Z M 10.816406 -12.117188" transform="translate(198.607 254.365)"/></g></g></g><g fill="#A52A2A"><g><g><path d="M 10.816406 -16.242188 C 5.273438 -16.320312 0.992188 -12.726562 0.496094 -7.414062 C 0.113281 -3.363281 2.523438 0.34375 9.132812 0.382812 C 13.796875 0.421875 17.464844 -1.492188 20.449219 -6.917969 C 20.640625 -7.261719 19.035156 -8.332031 18.765625 -7.796875 C 16.777344 -4.011719 13.378906 -3.097656 11.199219 -3.132812 C 8.445312 -3.171875 6.878906 -4.050781 6.6875 -6.078125 C 11.007812 -5.425781 14.523438 -6.765625 15.824219 -9.480469 C 17.429688 -12.496094 15.785156 -16.167969 10.816406 -16.242188 Z M 10.28125 -12.613281 C 10.855469 -12.535156 11.007812 -11.925781 10.777344 -11.160156 C 10.433594 -9.9375 9.097656 -8.445312 6.878906 -8.523438 C 7.453125 -11.007812 8.90625 -12.804688 10.28125 -12.613281 Z M 10.28125 -12.613281" transform="translate(219.205 254.365)"/></g></g></g></svg>